<svg width="320px" height="288px" viewBox="0 0 320 288" version="1.1">
    <g id="gopher" stroke="none" strokeWidth="1" fill="none" fillRule="evenodd">
        <path d="M69.19,47.16 C69.19,47.16 44,23.58 58.65,12.49 C73.3,1.4 87.77,13.32 95.81,21.92" id="Path" stroke="#000000" strokeWidth="2" fill="#B9CAD8"/>
        <path d="M257.15,26.52 C257.15,26.52 277.15,-5.37 292.37,10.16 C307.59,25.69 292.92,46.16 292.92,46.16" id="Path" stroke="#000000" strokeWidth="2" fill="#B9CAD8"/>
        <path d="M43,285.65 C43,285.65 44.31,161.54 46.92,134.56 C49.53,107.58 52.15,-1.69 176.32,1 C300.49,3.69 307,102.19 307,102.19 C307,102.19 312.25,260 305.71,287" id="Path" stroke="#000000" strokeWidth="2" fill="#B9CAD8"/>
        <path d="M102.18,38.21 C102.18,38.21 8.4,40.91 46.09,123.39 C72.73,181.72 150,137 150.91,108 C151.36,93.08 158.71,44.69 102.18,38.21 Z" id="Path" stroke="#000000" strokeWidth="2" fill="#FFFFFF" strokeLinecap="round" strokeLinejoin="round"/>
        <path d="M304.42,131.9 C304.42,131.9 355.35,53.11 266.04,37.41 C202.88,26.3 195.92,115.34 219.27,132.47 C231.34,141.32 267,174.8 304.42,131.9 Z" id="Path" stroke="#000000" strokeWidth="2" fill="#FFFFFF" strokeLinecap="round" strokeLinejoin="round"/>
        <path d="M69.55,79.72 C69.55,79.72 48,80.37 56.67,100 C62.79,113.91 80.54,103.24 80.74,96.34 C80.84,92.81 82.53,81.27 69.55,79.72 Z" id="Path" stroke="#000000" strokeWidth="2" fill="#000000" strokeLinecap="round" strokeLinejoin="round"/>
        <path d="M235.59,80.21 C235.59,80.21 213.84,80.87 222.59,100.74 C228.77,114.79 246.69,104.01 246.9,97.04 C247,93.43 248.7,81.78 235.59,80.21 Z" id="Path" stroke="#000000" strokeWidth="2" fill="#000000" strokeLinecap="round" strokeLinejoin="round"/>
        <path d="M59.61,90.55 C59.5487642,89.012093 60.4285475,87.5913864 61.8325968,86.9608682 C63.2366461,86.33035 64.8829941,86.6166437 65.9917665,87.684132 C67.100539,88.7516204 67.4490672,90.3859257 66.8722537,91.8128783 C66.2954401,93.2398309 64.909123,94.1728639 63.37,94.17 C61.3341008,94.2034891 59.65375,92.5857045 59.61,90.55 Z" id="Path" stroke="#000000" strokeWidth="2" fill="#FFFFFF" strokeLinecap="round" strokeLinejoin="round"/>
        <path d="M227.16,90.19 C227.11116,88.460952 228.115101,86.8748014 229.698724,86.1790067 C231.282347,85.483212 233.129675,85.8166041 234.370172,87.0220751 C235.610669,88.227546 235.99682,90.0645701 235.346655,91.6674671 C234.696491,93.270364 233.139738,94.3193104 231.41,94.32 C230.297933,94.3387035 229.224267,93.9134349 228.426625,93.1383152 C227.628984,92.3631956 227.173147,91.3021463 227.16,90.19 Z" id="Path" stroke="#000000" strokeWidth="2" fill="#FFFFFF" strokeLinecap="round" strokeLinejoin="round"/>
        <path d="M82.44,32.86 C80.93,29.8 75.96,28.19 72.98,26.69 C72.53,26.46 69.05,25.11 69.16,25.88" id="Path" stroke="#000000" strokeWidth="2" strokeLinecap="round" strokeLinejoin="round"/>
        <path d="M81.66,31.23 C76.42,31.96 79.53,23.32 79.09,20.15" id="Path" stroke="#000000" strokeWidth="2" strokeLinecap="round" strokeLinejoin="round"/>
        <path d="M274.16,36.42 C275.79,33.42 287.16,28.01 291.5,31.64" id="Path" stroke="#000000" strokeWidth="2" strokeLinecap="round" strokeLinejoin="round"/>
        <path d="M274.79,35.32 C282.88,30.32 281.92,26.32 284.45,19.89" id="Path" stroke="#000000" strokeWidth="2" strokeLinecap="round" strokeLinejoin="round"/>
        <g id="mouth" transform="translate(149.000000, 109.000000)" stroke="#000000" strokeWidth="2">
            <path d="M15.71,28.27 C15.71,28.27 13.35,55.9 28.77,57 C46.63,58.33 41.77,21 41.77,21" id="Path" fill="#FFFFFF"/>
            <path d="M11.64,13.11 C11.64,13.11 -11.8,30.06 8.85,37.72 C17.99,41.11 22.85,32.2 29.07,31.72 C40.7,30.78 46.07,39.35 52.07,36.47 C58.07,33.59 61.07,20.12 40.49,10.21" id="Path" fill="#D0C5B8"/>
            <path d="M29.15,0.57 C29.15,0.57 0.79,0.1 11.64,13.11 C22.49,26.12 36.64,16.92 36.64,16.92 C36.64,16.92 56.39,2.1 29.15,0.57 Z" id="Path" fill="#646260"/>
            <path d="M29.07,31.7 L28.77,57.06" id="Path" strokeLinecap="round" strokeLinejoin="round"/>
        </g>
        <path d="M95.63,278.12 C95.63,278.12 97.27,193.6 178.3,196.65 C259.33,199.7 247.1,279 247.1,279" id="Path" fill="#FFFFFF" opacity="0.26"/>
        <g transform="translate(210.000000, 194.000000)">
            <g id="right_arm" fill="#B9CAD8" stroke="#000000" strokeWidth="2">
                <path d="M55.26,0.44 C55.26,0.44 -13,5.44 2.74,21.08 C18.48,36.72 48.67,43.29 53.4,45.33" id="Path"/>
            </g>
        </g>
        <path d="M271.76,40.19 C271.76,40.19 325,45 318,94 C308.35,161.56 258.81,152.39 258.81,152.39 C258.81,152.39 326.3,122.39 296.31,63.8 C292.37,56.1 279.43,46.91 271.76,40.19 Z" id="Path" fill="#000000" opacity="0.1"/>
        <path d="M103.76,39.19 C103.76,39.19 160.76,34.31 151,110 C147,141 90.81,151.39 90.81,151.39 C90.81,151.39 158.3,121.39 128.31,62.8 C124.37,55.1 111.43,45.91 103.76,39.19 Z" id="Path" fill="#000000" opacity="0.1"/>
        <g transform="translate(2.000000, 171.000000)">
            <g id="left_arm"  fill="#B9CAD8" stroke="#000000" strokeWidth="2">
                <path d="M44.36,8.9 C44.36,8.9 -5.38,-10.83 1.25,11.7 C7.88,34.23 44.08,52.45 44.08,52.45" id="Path"/>
            </g>
        </g>
        <g id="left_closed" transform="translate(36.107142, 37.210000)">
            <path d="M66.3145336,0.79 C66.3145336,0.79 -28.0417466,3.49820363 9.87985932,86.2288093 C36.6835627,144.736038 114.428389,99.8801616 115.343981,70.7920486 C115.796746,55.826716 123.191912,7.28968871 66.3145336,0.79 Z" id="Path" stroke="#000000" strokeWidth="2" fill="#B9CAD8"/>
            <path d="M67.9877056,1.85351468 C67.9877056,1.85351468 125.625257,-3.01502407 115.75609,72.4972092 C111.71135,103.424402 54.8928585,113.79 54.8928585,113.79 C54.8928585,113.79 123.137741,83.8604585 92.8122999,25.4080639 C88.8282306,17.7261482 75.7434953,8.55773199 67.9877056,1.85351468 Z" id="Path" fill="#000000" opacity="0.1"/>
            <path d="M115.892858,73.1254636 C42.7210001,95.4914007 1.89285847,61.79 1.89285847,61.79" id="Path" stroke="#000000" strokeWidth="2"/>
        </g>
        <g id="right_closed" transform="translate(206.000000, 36.000000)">
            <path d="M65.76,4.19 C65.76,4.19 119,9 112,58 C102.35,125.56 52.81,116.39 52.81,116.39 C52.81,116.39 120.3,86.39 90.31,27.8 C86.37,20.1 73.43,10.91 65.76,4.19 Z" id="Path" fill="#000000" opacity="0.1"/>
            <path d="M98.42,95.9 C98.42,95.9 149.35,17.11 60.04,1.41 C-3.12,-9.7 -10.08,79.34 13.27,96.47 C25.34,105.32 61,138.8 98.42,95.9 Z" id="Path" stroke="#000000" strokeWidth="2" fill="#B9CAD8"/>
            <path d="M1.11,69.05 C1.11,69.05 62.49,101.62 109.74,73.31" id="Path" stroke="#000000" strokeWidth="2"/>
        </g>
    </g>
</svg>